<?xml version="1.0" encoding="UTF-8" standalone="no"?>
<!-- Created with Inkscape (http://www.inkscape.org/) -->

<svg
   xmlns:dc="http://purl.org/dc/elements/1.1/"
   xmlns:cc="http://creativecommons.org/ns#"
   xmlns:rdf="http://www.w3.org/1999/02/22-rdf-syntax-ns#"
   xmlns:svg="http://www.w3.org/2000/svg"
   xmlns="http://www.w3.org/2000/svg"
   xmlns:sodipodi="http://sodipodi.sourceforge.net/DTD/sodipodi-0.dtd"
   xmlns:inkscape="http://www.inkscape.org/namespaces/inkscape"
   width="38.004143mm"
   height="32.710888mm"
   viewBox="0 0 38.004143 32.710888"
   version="1.1"
   id="svg1463"
   inkscape:version="0.92.4 (5da689c313, 2019-01-14)"
   sodipodi:docname="childcare.svg">
  <defs
     id="defs1457" />
  <sodipodi:namedview
     id="base"
     pagecolor="#ffffff"
     bordercolor="#666666"
     borderopacity="1.0"
     inkscape:pageopacity="0.0"
     inkscape:pageshadow="2"
     inkscape:zoom="2.8"
     inkscape:cx="99.658326"
     inkscape:cy="66.479764"
     inkscape:document-units="mm"
     inkscape:current-layer="layer1"
     showgrid="false"
     fit-margin-top="0"
     fit-margin-left="0"
     fit-margin-right="0"
     fit-margin-bottom="0"
     inkscape:window-width="1920"
     inkscape:window-height="1001"
     inkscape:window-x="-9"
     inkscape:window-y="-9"
     inkscape:window-maximized="1" />
  <metadata
     id="metadata1460">
    <rdf:RDF>
      <cc:Work
         rdf:about="">
        <dc:format>image/svg+xml</dc:format>
        <dc:type
           rdf:resource="http://purl.org/dc/dcmitype/StillImage" />
        <dc:title />
      </cc:Work>
    </rdf:RDF>
  </metadata>
  <g
     inkscape:label="Layer 1"
     inkscape:groupmode="layer"
     id="layer1"
     transform="translate(-79.597499,-167.42272)">
    <g
       style="fill:#065f92;fill-opacity:1;stroke-width:1.91424346"
       id="g12"
       transform="matrix(0.13821822,0,0,0.13821822,62.716884,147.66782)">
      <path
         class="st1"
         d="m 395.4,348.4 c 1,-0.4 1.1,-2 0.4,-2.9 -0.6,-0.9 -1.7,-1.2 -2.7,-1.5 -4.9,-1.4 -9.9,-2.5 -14.8,-3.5 -1,-0.2 -2,-0.4 -3,-0.4 -1.5,0 -3,0.5 -4.5,0.7 -1.9,0.3 -3.8,0 -5.7,-0.5 0.1,-0.2 0.2,-0.4 0.2,-0.6 2.6,0 5.2,-0.2 7.8,-0.7 0.9,-0.2 1.9,-0.4 2.6,-1 1,-0.9 1.2,-2.5 1.3,-3.9 0.5,-9.8 -0.8,-19.6 -2.2,-29.3 -0.7,-5.1 -1.5,-10.1 -2.8,-15.1 -1.7,-6.4 -4.4,-12.6 -7.8,-18.3 -1.1,-1.8 -2.3,-3.6 -4.3,-4.3 -1,-0.4 -2.1,-0.4 -3.1,-0.1 -2.9,-0.8 -7.3,-1 -8.5,-1 -1.3,-0.8 -2.4,-2.2 -3,-3.7 1.6,-0.6 3.2,-1.3 4.6,-2.3 4.5,-3.1 7.5,-8.8 6.8,-14.2 0.7,0.1 1.4,-0.1 2,-0.4 1.7,-1.1 2.1,-3.4 1.9,-5.5 -0.1,-1.3 -0.3,-2.8 -1.2,-3.8 -0.8,-0.9 -2,-1.4 -3.2,-1.3 -0.5,0.1 -1,0.2 -1.5,0.5 0.1,-2.3 0.3,-4.6 -0.7,-6.7 -1.2,-2.4 -3.6,-3.8 -6,-4.9 -5.7,-2.6 -12.4,-4.2 -18.3,-2.2 -5.9,2 -10.6,8.7 -8.7,14.7 -1.9,2.1 -3.9,4.7 -4.4,6.2 -1.4,4.1 -1,5.7 0.3,9.9 1.6,4.9 6,8.1 11,9.8 0,0.2 -0.1,0.5 -0.1,0.7 -0.1,0.6 -0.2,1.2 -0.6,1.7 -0.4,0.5 -1,0.7 -1.6,0.9 -0.1,0 -0.2,0.1 -0.2,0.1 -0.1,0 -0.1,-0.1 -0.2,-0.1 -2.8,-0.4 -7.9,0.2 -8.8,2.7 -0.1,0.3 -0.3,0.7 -0.4,1 -0.4,0.2 -0.7,0.5 -1,0.9 -1.2,1.4 -1.7,3.2 -2.2,4.9 -4.8,15.8 -8.3,32.1 -16.4,46.4 -0.7,1.1 -1.3,2.4 -1.7,3.7 -1.1,-0.6 -2.2,-1.3 -3.4,-1.5 -1.3,-0.2 -2.7,0 -4,0.3 -1.4,0.3 -2.9,0.7 -3.8,1.8 -0.9,1.1 -0.5,3.3 0.9,3.5 -0.2,0.4 -0.7,0.6 -1.2,0.6 0,0.4 0,0.8 0.1,1.2 4.1,1 8,2.5 11.8,4.5 -0.3,2.1 -0.5,4.2 -0.8,6.4 -0.3,2.4 -0.6,4.9 0.5,7.1 0.1,0.2 0.2,0.4 0.4,0.6 0.2,2.3 0.9,4.5 2.6,6.1 2.5,2.3 6.4,2.5 9.7,1.6 4,-1 7.8,-3.4 10.3,-6.6 3.7,-0.7 6.9,-2.9 9.6,-5.5 1,-1 2,-2.1 2.9,-3.1 l -1.1,3.6 c -0.2,0.6 -0.4,1.4 0,1.9 0.2,0.3 0.5,0.6 0.9,0.8 2.1,1.3 4.4,2.2 6.8,2.8 0.7,1.2 1.6,2.3 2.7,3.1 3.7,2.6 8.6,1.8 12.9,1 5,-0.9 10.1,-1.8 15.2,-2.5 3.2,-0.4 6.5,-0.8 9.7,-0.1 2.7,0.6 5.2,2 7.8,2.9 3.4,1.2 7,1.7 10.6,2.1 -0.1,-1 -0.3,-2 -0.4,-3 2.2,-0.9 2.3,-5.2 0,-6.2 z m -84.5,-25.1 c 0,0 0.1,0 0,0 0.1,0 0.1,0 0,0 0.1,0 0.1,0 0,0 z"
         id="path10"
         inkscape:connector-curvature="0"
         style="fill:#065f92;fill-opacity:1;stroke-width:1.91424346" />
    </g>
    <path
       class="st1"
       d="m 105.13606,183.25901 v 0 c 0.15204,0.0691 0.29025,0.17969 0.41465,0.29026 0.1244,0.11057 0.34555,0.20733 0.70491,0.20733 0.49759,0 1.09193,-0.20733 1.14721,-0.34555 h -1.79683 0.0138 -0.0138 c -0.49759,-0.27643 -1.05046,-0.41465 -1.61716,-0.41465 h -0.6358 c 0.0553,-0.0691 0.0691,-0.16586 0.0553,-0.2488 -0.59434,0.15204 -1.18868,-0.30408 -1.79684,-0.20732 -0.45612,0.0691 -0.89842,0.45612 -1.34072,0.67727 -0.17968,0.0691 -0.373185,0.11057 -0.56669,0.13821 -0.01382,0 -0.04147,0 -0.05529,0 0,0 0,0.0138 0,0.0138 -0.09675,0.0138 -0.193505,0.0276 -0.290258,0.0276 0,0 0,0 0,0 -1.838302,-0.0829 -3.690426,-0.42848 -5.431976,0.11057 -0.414655,0.1244 -0.829309,0.30408 -1.257786,0.23498 -0.276436,-0.0415 -0.511407,-0.17969 -0.732556,-0.34555 -0.45612,-0.3179 -0.856953,-0.70491 -1.271608,-1.06428 0.110575,-0.13822 0.221149,-0.26262 0.345546,-0.40083 -0.262615,-0.16587 -0.497586,-0.34555 -0.732557,-0.55288 0.01382,-0.0138 0.02764,-0.0276 0.04147,-0.0415 -0.193506,-0.22115 -0.331724,-0.48377 -0.442299,-0.7602 -0.09675,-0.23497 -0.15204,-0.48377 -0.276436,-0.69109 -0.317902,-0.49759 -0.939884,-0.67727 -1.520401,-0.80167 -0.04147,-0.71873 0,-1.45129 0.09675,-2.17002 0.317902,0.16586 0.677269,0.24879 0.995171,0.11057 0.248793,-0.11057 0.414655,-0.3179 0.580517,-0.52523 0.469942,-0.59434 0.939884,-1.18868 1.285429,-1.85212 0.138218,-0.2488 0.248793,-0.52523 0.331724,-0.80167 0.05529,-0.0138 0.110575,-0.0276 0.165862,-0.0553 0.414655,-0.15204 0.787844,-0.46994 0.953706,-0.88459 0.138218,-0.34555 0.15204,-0.73256 0.01382,-1.07811 -0.09675,-0.23497 -0.248792,-0.44229 -0.45612,-0.60816 0.110575,-0.1935 0.15204,-0.42847 0.08293,-0.64962 -0.124396,-0.37319 -0.539051,-0.55287 -0.898418,-0.74638 -0.995171,-0.53905 -1.727728,-1.47893 -2.709077,-2.04563 -0.30408,-0.17968 -0.621982,-0.3179 -0.967528,-0.34554 -0.345545,-0.0415 -0.704913,0.0415 -0.981349,0.26261 -0.08293,0.0691 -0.15204,0.15204 -0.221149,0.23497 -0.09675,-0.0968 -0.22115,-0.16586 -0.345546,-0.22115 l 0.331724,0.24879 c -0.02764,0.0415 -0.06911,0.0829 -0.09675,0.1244 -0.06911,-0.15204 -0.165862,-0.27644 -0.290258,-0.40083 -0.400833,-0.17969 -0.898419,-0.22115 -1.340717,-0.19351 -0.774022,0.0553 -1.630975,0.3179 -2.017986,0.99517 -0.276436,0.48377 -0.248793,1.06428 -0.207327,1.61716 0.01382,0.0968 0.01382,0.1935 0.02764,0.29026 -0.05529,0.17968 -0.08293,0.37318 -0.08293,0.55287 0.01382,0.62198 0.359368,1.21632 0.870775,1.57569 0.234971,0.17968 0.511408,0.30408 0.732557,0.49758 0.221149,0.20733 0.359367,0.52523 0.262614,0.80167 -0.08293,0.20732 -0.290258,0.34554 -0.483763,0.46994 -0.193506,0.1244 -0.400833,0.24879 -0.497586,0.4423 -0.09675,0.20732 -0.01382,0.5114 0.221149,0.55287 0.124397,0.0276 0.276437,-0.0553 0.387011,0.0276 0.138218,0.0968 0.06911,0.33173 -0.05529,0.4423 -0.124396,0.11058 -0.30408,0.17969 -0.387011,0.33173 0.193505,-0.0829 0.387011,-0.17969 0.525229,-0.34555 0.138218,-0.16586 0.179684,-0.41465 0.04147,-0.58052 -0.06911,-0.0691 -0.15204,-0.12439 -0.193506,-0.20732 -0.06911,-0.13822 0.02764,-0.29026 0.15204,-0.37319 0.124397,-0.0829 0.276437,-0.11058 0.400833,-0.17969 0.262615,-0.13821 0.387011,-0.44229 0.414655,-0.73255 0.124396,0.1935 0.262614,0.37319 0.414654,0.53905 0.110575,0.12439 0.248793,0.24879 0.414655,0.29026 0.05529,0.0138 0.124396,0.0138 0.179684,0 0,0 0.01382,0.0138 0.01382,0.0138 0.08293,0.15204 0.179684,0.29026 0.276437,0.42847 -0.165862,0.84314 -0.45612,1.67245 -0.843131,2.43265 -0.02764,-0.0553 -0.02764,-0.1244 -0.01382,-0.19351 -0.387011,0.64963 -1.326895,0.64963 -1.948877,1.0781 -0.497586,0.33173 -0.746378,0.92606 -0.926062,1.49276 -0.387011,1.23014 -0.539051,2.52939 -0.45612,3.81482 0.09675,1.40983 0.497585,2.8473 0.179684,4.22948 -0.110575,0.45612 -0.290259,0.89842 -0.483764,1.34072 -0.345546,0.78784 -0.732557,1.56186 -1.161033,2.32206 0.15204,0.1244 0.30408,0.24879 0.45612,0.35937 -0.15204,0.1244 -0.30408,0.27644 -0.414655,0.4423 -0.497585,0.64962 -0.691091,1.49275 -0.774022,2.30824 -0.08293,0.78785 -0.05529,1.63098 0.373189,2.30825 0.193506,0.3179 0.469942,0.58051 0.760201,0.82931 0.621982,0.53905 1.299251,1.03663 2.100916,1.25778 0.843132,0.24879 1.74155,0.16586 2.626147,0.13822 1.67244,-0.0553 3.358702,0.0415 5.017321,0.3179 0.138218,0.0276 0.276436,0.0415 0.414655,0.11058 0.15204,0.0691 0.276436,0.20732 0.414654,0.30408 0.37319,0.27643 0.870775,0.37319 1.326895,0.24879 0.45612,-0.1244 0.843131,-0.4423 1.299252,-0.52523 0.511407,-0.0829 1.022814,0.16586 1.548044,0.13822 0.566694,-0.0276 1.078102,-0.35937 1.437469,-0.80167 0.124396,-0.15204 0.221149,-0.30408 0.317902,-0.46994 0.01382,-0.0138 0.04147,-0.0138 0.05529,-0.0276 0.995171,-0.49759 1.948877,-1.2025 3.054621,-1.29925 0.99517,-0.0968 1.9627,0.30408 2.95787,0.34554 0.78784,0.0415 1.57569,-0.15204 2.33589,-0.34554 0.12439,-0.0276 0.26261,-0.0691 0.37319,-0.13822 0.45612,-0.27644 0.37319,-0.95371 0.48376,-1.47894 -0.38701,-0.77402 -1.46511,-0.78784 -2.32207,-0.67727 -0.48376,0.0553 -0.96752,0.1244 -1.45129,0.17969 -0.51141,0.0691 -1.03663,0.12439 -1.54804,0.1935 -0.26262,0.0276 -0.52523,0.0553 -0.77402,-0.0138 -0.1244,-0.0276 -0.23497,-0.0968 -0.34555,-0.13822 0.22115,-0.41465 0.30408,-0.87077 0.17968,-1.31307 -0.16586,-0.5667 -0.66344,-0.98135 -1.202491,-1.2025 -0.552873,-0.22115 -1.147211,-0.24879 -1.74155,-0.24879 -0.290258,0 -0.580516,0.0138 -0.856953,0.0415 -0.02764,-0.0553 -0.06911,-0.11057 -0.110574,-0.15204 -0.09675,-0.0829 -0.234971,-0.0968 -0.359368,-0.11057 -1.451291,-0.13822 -2.916404,-0.0829 -4.340052,0.16586 -0.801665,0.13822 -1.575687,0.34555 -2.377353,0.46994 -0.248793,0.0415 -0.497586,0.0691 -0.7602,0.0968 -0.45612,-1.16104 -0.331724,-2.55704 0.373189,-3.59368 0.234971,-0.34554 0.525229,-0.64962 0.746378,-0.99517 0.179684,-0.29026 0.317902,-0.60816 0.428477,-0.92606 0.193505,0.11057 0.387011,0.20733 0.580516,0.30408 0.98135,0.42847 2.073274,0.53905 3.151376,0.59434 2.142382,0.11057 4.298586,0.0968 6.440965,-0.0829 0.22115,0.11057 0.41466,0.27643 0.62198,0.40083 0.70492,0.42848 1.61716,0.52523 2.39118,0.24879 0.16586,-0.0553 0.3179,-0.13822 0.4423,-0.26261 0.12439,-0.1244 0.1935,-0.30408 0.15204,-0.46995 0.30408,-0.20732 0.59433,-0.41465 0.89841,-0.62198 0.0829,-0.0553 0.16587,-0.12439 0.13822,-0.22115 0,-0.0138 -0.0138,-0.0415 -0.0276,-0.0553 0.0276,-0.0553 0.0553,-0.11058 0.0829,-0.16587 l 0.34555,-0.77402 c 0.0829,-0.17968 -0.0553,-0.38701 -0.2488,-0.38701 h -4.94821 c -0.207324,0 -0.33172,0.20733 -0.248789,0.38701 l 0.110574,0.2488 c -1.105745,-0.15204 -2.197669,-0.48377 -3.303415,-0.74638 1.119568,-0.26262 2.142382,-0.60816 3.37252,-0.91224 0.0829,0.0138 0.52523,0.3179 0.60816,0.34554 0.23497,0.0829 0.53905,0.16586 0.80167,0.15204 0,0 0,0 0.0138,0.0138 0.1935,0.15204 0.46994,0.17969 0.70491,0.11058 0.0553,-0.0138 0.11058,-0.0415 0.15204,-0.0829 0.0276,-0.0276 0.0415,-0.0553 0.0415,-0.0829 0.0276,-0.0138 0.0691,-0.0138 0.0968,-0.0415 0.13822,-0.0691 0.23497,-0.20733 0.20733,-0.35937 -0.0553,0.0138 -0.0968,0.0138 -0.15204,0.0138 0.15204,-0.0276 0.3179,-0.0829 0.42847,-0.20733 0.11058,-0.1244 0.15204,-0.33173 0.0415,-0.45612 -0.0276,0.0968 -0.13822,0.12439 -0.23497,0.15204 -0.0829,0.0138 -0.16586,0.0415 -0.24879,0.0553 0,-0.0138 0,-0.0277 0.0138,-0.0553 0.12439,-0.0276 0.23497,-0.0553 0.35937,-0.11058 0.0691,-0.0415 0.15204,-0.0829 0.1935,-0.15204 0.0553,-0.0691 0.0829,-0.15204 0.0553,-0.23497 -0.0138,-0.0415 -0.0415,-0.0829 -0.0829,-0.11057 0.5114,0.0138 1.02281,0 1.53422,-0.0691 0.0829,-0.0138 0.16586,-0.0276 0.23497,-0.0829 0.0691,-0.0553 0.17968,-0.20733 0.11057,-0.26262 -0.0415,-0.0276 -0.13821,-0.0829 -0.17968,-0.0829 -0.30408,0 -0.37319,0 -0.67727,-0.0138 -0.1935,0 -0.42847,-0.0276 -0.64962,-0.0691 0.41465,-0.0138 0.82931,-0.0415 1.11956,-0.0553 0.17969,0.0691 0.41466,0.11058 0.62199,0.20733 z m -2.37736,0.51141 c -0.0691,0.0415 -0.12439,0.0691 -0.1935,0.0967 0.0276,-0.0553 0.0691,-0.0967 0.11057,-0.13822 0.0553,0 0.0968,0 0.15204,0.0138 -0.0276,0 -0.0553,0.0138 -0.0691,0.0276 z"
       id="path14"
       inkscape:connector-curvature="0"
       style="fill:#065f92;fill-opacity:1;stroke-width:0.26458332" />
    <g
       id="g20"
       style="fill:#065f92;fill-opacity:1;stroke-width:1.91424346"
       transform="matrix(0.13821822,0,0,0.13821822,62.716884,147.66782)">
      <path
         style="fill:#065f92;fill-opacity:1;stroke-width:1.91424346"
         inkscape:connector-curvature="0"
         id="path18"
         d="m 168,144.4 c 0.1,0.1 0.2,0.2 0.3,0.4 0.1,0.1 0.3,0.1 0.4,0.2 z"
         class="st1" />
    </g>
  </g>
</svg>
