<?xml version="1.0" encoding="UTF-8" standalone="no"?>
<!-- Created with Inkscape (http://www.inkscape.org/) -->

<svg
   xmlns:dc="http://purl.org/dc/elements/1.1/"
   xmlns:cc="http://creativecommons.org/ns#"
   xmlns:rdf="http://www.w3.org/1999/02/22-rdf-syntax-ns#"
   xmlns:svg="http://www.w3.org/2000/svg"
   xmlns="http://www.w3.org/2000/svg"
   xmlns:sodipodi="http://sodipodi.sourceforge.net/DTD/sodipodi-0.dtd"
   xmlns:inkscape="http://www.inkscape.org/namespaces/inkscape"
   width="38.004143mm"
   height="32.710888mm"
   viewBox="0 0 38.004143 32.710888"
   version="1.1"
   id="svg1463"
   inkscape:version="0.92.4 (5da689c313, 2019-01-14)"
   sodipodi:docname="Child Care.svg">
  <defs
     id="defs1457" />
  <sodipodi:namedview
     id="base"
     pagecolor="#ffffff"
     bordercolor="#666666"
     borderopacity="1.0"
     inkscape:pageopacity="0.0"
     inkscape:pageshadow="2"
     inkscape:zoom="2.8"
     inkscape:cx="99.658326"
     inkscape:cy="66.479764"
     inkscape:document-units="mm"
     inkscape:current-layer="layer1"
     showgrid="false"
     fit-margin-top="0"
     fit-margin-left="0"
     fit-margin-right="0"
     fit-margin-bottom="0"
     inkscape:window-width="1920"
     inkscape:window-height="1001"
     inkscape:window-x="-9"
     inkscape:window-y="-9"
     inkscape:window-maximized="1" />
  <metadata
     id="metadata1460">
    <rdf:RDF>
      <cc:Work
         rdf:about="">
        <dc:format>image/svg+xml</dc:format>
        <dc:type
           rdf:resource="http://purl.org/dc/dcmitype/StillImage" />
        <dc:title></dc:title>
      </cc:Work>
    </rdf:RDF>
  </metadata>
  <g
     inkscape:label="Layer 1"
     inkscape:groupmode="layer"
     id="layer1"
     transform="translate(-79.597499,-167.42272)">
    <g
       id="g24"
       transform="matrix(0.13821822,0,0,0.13821822,62.716884,147.66782)"
       style="fill:#c8c8eb;fill-opacity:1;stroke-width:1.91424346">
      <g
         id="g12"
         style="fill:#c8c8eb;fill-opacity:1;stroke-width:1.91424346">
        <path
           style="fill:#c8c8eb;fill-opacity:1;stroke-width:1.91424346"
           inkscape:connector-curvature="0"
           id="path10"
           d="m 395.4,348.4 c 1,-0.4 1.1,-2 0.4,-2.9 -0.6,-0.9 -1.7,-1.2 -2.7,-1.5 -4.9,-1.4 -9.9,-2.5 -14.8,-3.5 -1,-0.2 -2,-0.4 -3,-0.4 -1.5,0 -3,0.5 -4.5,0.7 -1.9,0.3 -3.8,0 -5.7,-0.5 0.1,-0.2 0.2,-0.4 0.2,-0.6 2.6,0 5.2,-0.2 7.8,-0.7 0.9,-0.2 1.9,-0.4 2.6,-1 1,-0.9 1.2,-2.5 1.3,-3.9 0.5,-9.8 -0.8,-19.6 -2.2,-29.3 -0.7,-5.1 -1.5,-10.1 -2.8,-15.1 -1.7,-6.4 -4.4,-12.6 -7.8,-18.3 -1.1,-1.8 -2.3,-3.6 -4.3,-4.3 -1,-0.4 -2.1,-0.4 -3.1,-0.1 -2.9,-0.8 -7.3,-1 -8.5,-1 -1.3,-0.8 -2.4,-2.2 -3,-3.7 1.6,-0.6 3.2,-1.3 4.6,-2.3 4.5,-3.1 7.5,-8.8 6.8,-14.2 0.7,0.1 1.4,-0.1 2,-0.4 1.7,-1.1 2.1,-3.4 1.9,-5.5 -0.1,-1.3 -0.3,-2.8 -1.2,-3.8 -0.8,-0.9 -2,-1.4 -3.2,-1.3 -0.5,0.1 -1,0.2 -1.5,0.5 0.1,-2.3 0.3,-4.6 -0.7,-6.7 -1.2,-2.4 -3.6,-3.8 -6,-4.9 -5.7,-2.6 -12.4,-4.2 -18.3,-2.2 -5.9,2 -10.6,8.7 -8.7,14.7 -1.9,2.1 -3.9,4.7 -4.4,6.2 -1.4,4.1 -1,5.7 0.3,9.9 1.6,4.9 6,8.1 11,9.8 0,0.2 -0.1,0.5 -0.1,0.7 -0.1,0.6 -0.2,1.2 -0.6,1.7 -0.4,0.5 -1,0.7 -1.6,0.9 -0.1,0 -0.2,0.1 -0.2,0.1 -0.1,0 -0.1,-0.1 -0.2,-0.1 -2.8,-0.4 -7.9,0.2 -8.8,2.7 -0.1,0.3 -0.3,0.7 -0.4,1 -0.4,0.2 -0.7,0.5 -1,0.9 -1.2,1.4 -1.7,3.2 -2.2,4.9 -4.8,15.8 -8.3,32.1 -16.4,46.4 -0.7,1.1 -1.3,2.4 -1.7,3.7 -1.1,-0.6 -2.2,-1.3 -3.4,-1.5 -1.3,-0.2 -2.7,0 -4,0.3 -1.4,0.3 -2.9,0.7 -3.8,1.8 -0.9,1.1 -0.5,3.3 0.9,3.5 -0.2,0.4 -0.7,0.6 -1.2,0.6 0,0.4 0,0.8 0.1,1.2 4.1,1 8,2.5 11.8,4.5 -0.3,2.1 -0.5,4.2 -0.8,6.4 -0.3,2.4 -0.6,4.9 0.5,7.1 0.1,0.2 0.2,0.4 0.4,0.6 0.2,2.3 0.9,4.5 2.6,6.1 2.5,2.3 6.4,2.5 9.7,1.6 4,-1 7.8,-3.4 10.3,-6.6 3.7,-0.7 6.9,-2.9 9.6,-5.5 1,-1 2,-2.1 2.9,-3.1 l -1.1,3.6 c -0.2,0.6 -0.4,1.4 0,1.9 0.2,0.3 0.5,0.6 0.9,0.8 2.1,1.3 4.4,2.2 6.8,2.8 0.7,1.2 1.6,2.3 2.7,3.1 3.7,2.6 8.6,1.8 12.9,1 5,-0.9 10.1,-1.8 15.2,-2.5 3.2,-0.4 6.5,-0.8 9.7,-0.1 2.7,0.6 5.2,2 7.8,2.9 3.4,1.2 7,1.7 10.6,2.1 -0.1,-1 -0.3,-2 -0.4,-3 2.2,-0.9 2.3,-5.2 0,-6.2 z m -84.5,-25.1 c 0,0 0.1,0 0,0 0.1,0 0.1,0 0,0 0.1,0 0.1,0 0,0 z"
           class="st1" />
      </g>
      <g
         id="g22"
         style="fill:#c8c8eb;fill-opacity:1;stroke-width:1.91424346">
        <g
           id="g16"
           style="fill:#c8c8eb;fill-opacity:1;stroke-width:1.91424346">
          <path
             style="fill:#c8c8eb;fill-opacity:1;stroke-width:1.91424346"
             inkscape:connector-curvature="0"
             id="path14"
             d="m 306.9,257.5 v 0 c 1.1,0.5 2.1,1.3 3,2.1 0.9,0.8 2.5,1.5 5.1,1.5 3.6,0 7.9,-1.5 8.3,-2.5 h -13 0.1 -0.1 c -3.6,-2 -7.6,-3 -11.7,-3 H 294 c 0.4,-0.5 0.5,-1.2 0.4,-1.8 -4.3,1.1 -8.6,-2.2 -13,-1.5 -3.3,0.5 -6.5,3.3 -9.7,4.9 -1.3,0.5 -2.7,0.8 -4.1,1 -0.1,0 -0.3,0 -0.4,0 0,0 0,0.1 0,0.1 -0.7,0.1 -1.4,0.2 -2.1,0.2 0,0 0,0 0,0 -13.3,-0.6 -26.7,-3.1 -39.3,0.8 -3,0.9 -6,2.2 -9.1,1.7 -2,-0.3 -3.7,-1.3 -5.3,-2.5 -3.3,-2.3 -6.2,-5.1 -9.2,-7.7 0.8,-1 1.6,-1.9 2.5,-2.9 -1.9,-1.2 -3.6,-2.5 -5.3,-4 0.1,-0.1 0.2,-0.2 0.3,-0.3 -1.4,-1.6 -2.4,-3.5 -3.2,-5.5 -0.7,-1.7 -1.1,-3.5 -2,-5 -2.3,-3.6 -6.8,-4.9 -11,-5.8 -0.3,-5.2 0,-10.5 0.7,-15.7 2.3,1.2 4.9,1.8 7.2,0.8 1.8,-0.8 3,-2.3 4.2,-3.8 3.4,-4.3 6.8,-8.6 9.3,-13.4 1,-1.8 1.8,-3.8 2.4,-5.8 0.4,-0.1 0.8,-0.2 1.2,-0.4 3,-1.1 5.7,-3.4 6.9,-6.4 1,-2.5 1.1,-5.3 0.1,-7.8 -0.7,-1.7 -1.8,-3.2 -3.3,-4.4 0.8,-1.4 1.1,-3.1 0.6,-4.7 -0.9,-2.7 -3.9,-4 -6.5,-5.4 -7.2,-3.9 -12.5,-10.7 -19.6,-14.8 -2.2,-1.3 -4.5,-2.3 -7,-2.5 -2.5,-0.3 -5.1,0.3 -7.1,1.9 -0.6,0.5 -1.1,1.1 -1.6,1.7 -0.7,-0.7 -1.6,-1.2 -2.5,-1.6 l 2.4,1.8 c -0.2,0.3 -0.5,0.6 -0.7,0.9 -0.5,-1.1 -1.2,-2 -2.1,-2.9 -2.9,-1.3 -6.5,-1.6 -9.7,-1.4 -5.6,0.4 -11.8,2.3 -14.6,7.2 -2,3.5 -1.8,7.7 -1.5,11.7 0.1,0.7 0.1,1.4 0.2,2.1 -0.4,1.3 -0.6,2.7 -0.6,4 0.1,4.5 2.6,8.8 6.3,11.4 1.7,1.3 3.7,2.2 5.3,3.6 1.6,1.5 2.6,3.8 1.9,5.8 -0.6,1.5 -2.1,2.5 -3.5,3.4 -1.4,0.9 -2.9,1.8 -3.6,3.2 -0.7,1.5 -0.1,3.7 1.6,4 0.9,0.2 2,-0.4 2.8,0.2 1,0.7 0.5,2.4 -0.4,3.2 -0.9,0.8 -2.2,1.3 -2.8,2.4 1.4,-0.6 2.8,-1.3 3.8,-2.5 1,-1.2 1.3,-3 0.3,-4.2 -0.5,-0.5 -1.1,-0.9 -1.4,-1.5 -0.5,-1 0.2,-2.1 1.1,-2.7 0.9,-0.6 2,-0.8 2.9,-1.3 1.9,-1 2.8,-3.2 3,-5.3 0.9,1.4 1.9,2.7 3,3.9 0.8,0.9 1.8,1.8 3,2.1 0.4,0.1 0.9,0.1 1.3,0 0,0 0.1,0.1 0.1,0.1 0.6,1.1 1.3,2.1 2,3.1 -1.2,6.1 -3.3,12.1 -6.1,17.6 -0.2,-0.4 -0.2,-0.9 -0.1,-1.4 -2.8,4.7 -9.6,4.7 -14.1,7.8 -3.6,2.4 -5.4,6.7 -6.7,10.8 -2.8,8.9 -3.9,18.3 -3.3,27.6 0.7,10.2 3.6,20.6 1.3,30.6 -0.8,3.3 -2.1,6.5 -3.5,9.7 -2.5,5.7 -5.3,11.3 -8.4,16.8 1.1,0.9 2.2,1.8 3.3,2.6 -1.1,0.9 -2.2,2 -3,3.2 -3.6,4.7 -5,10.8 -5.6,16.7 -0.6,5.7 -0.4,11.8 2.7,16.7 1.4,2.3 3.4,4.2 5.5,6 4.5,3.9 9.4,7.5 15.2,9.1 6.1,1.8 12.6,1.2 19,1 12.1,-0.4 24.3,0.3 36.3,2.3 1,0.2 2,0.3 3,0.8 1.1,0.5 2,1.5 3,2.2 2.7,2 6.3,2.7 9.6,1.8 3.3,-0.9 6.1,-3.2 9.4,-3.8 3.7,-0.6 7.4,1.2 11.2,1 4.1,-0.2 7.8,-2.6 10.4,-5.8 0.9,-1.1 1.6,-2.2 2.3,-3.4 0.1,-0.1 0.3,-0.1 0.4,-0.2 7.2,-3.6 14.1,-8.7 22.1,-9.4 7.2,-0.7 14.2,2.2 21.4,2.5 5.7,0.3 11.4,-1.1 16.9,-2.5 0.9,-0.2 1.9,-0.5 2.7,-1 3.3,-2 2.7,-6.9 3.5,-10.7 -2.8,-5.6 -10.6,-5.7 -16.8,-4.9 -3.5,0.4 -7,0.9 -10.5,1.3 -3.7,0.5 -7.5,0.9 -11.2,1.4 -1.9,0.2 -3.8,0.4 -5.6,-0.1 -0.9,-0.2 -1.7,-0.7 -2.5,-1 1.6,-3 2.2,-6.3 1.3,-9.5 -1.2,-4.1 -4.8,-7.1 -8.7,-8.7 -4,-1.6 -8.3,-1.8 -12.6,-1.8 -2.1,0 -4.2,0.1 -6.2,0.3 -0.2,-0.4 -0.5,-0.8 -0.8,-1.1 -0.7,-0.6 -1.7,-0.7 -2.6,-0.8 -10.5,-1 -21.1,-0.6 -31.4,1.2 -5.8,1 -11.4,2.5 -17.2,3.4 -1.8,0.3 -3.6,0.5 -5.5,0.7 -3.3,-8.4 -2.4,-18.5 2.7,-26 1.7,-2.5 3.8,-4.7 5.4,-7.2 1.3,-2.1 2.3,-4.4 3.1,-6.7 1.4,0.8 2.8,1.5 4.2,2.2 7.1,3.1 15,3.9 22.8,4.3 15.5,0.8 31.1,0.7 46.6,-0.6 1.6,0.8 3,2 4.5,2.9 5.1,3.1 11.7,3.8 17.3,1.8 1.2,-0.4 2.3,-1 3.2,-1.9 0.9,-0.9 1.4,-2.2 1.1,-3.4 2.2,-1.5 4.3,-3 6.5,-4.5 0.6,-0.4 1.2,-0.9 1,-1.6 0,-0.1 -0.1,-0.3 -0.2,-0.4 0.2,-0.4 0.4,-0.8 0.6,-1.2 l 2.5,-5.6 c 0.6,-1.3 -0.4,-2.8 -1.8,-2.8 h -35.8 c -1.5,0 -2.4,1.5 -1.8,2.8 l 0.8,1.8 c -8,-1.1 -15.9,-3.5 -23.9,-5.4 8.1,-1.9 15.5,-4.4 24.4,-6.6 0.6,0.1 3.8,2.3 4.4,2.5 1.7,0.6 3.9,1.2 5.8,1.1 0,0 0,0 0.1,0.1 1.4,1.1 3.4,1.3 5.1,0.8 0.4,-0.1 0.8,-0.3 1.1,-0.6 0.2,-0.2 0.3,-0.4 0.3,-0.6 0.2,-0.1 0.5,-0.1 0.7,-0.3 1,-0.5 1.7,-1.5 1.5,-2.6 -0.4,0.1 -0.7,0.1 -1.1,0.1 1.1,-0.2 2.3,-0.6 3.1,-1.5 0.8,-0.9 1.1,-2.4 0.3,-3.3 -0.2,0.7 -1,0.9 -1.7,1.1 -0.6,0.1 -1.2,0.3 -1.8,0.4 0,-0.1 0,-0.2 0.1,-0.4 0.9,-0.2 1.7,-0.4 2.6,-0.8 0.5,-0.3 1.1,-0.6 1.4,-1.1 0.4,-0.5 0.6,-1.1 0.4,-1.7 -0.1,-0.3 -0.3,-0.6 -0.6,-0.8 3.7,0.1 7.4,0 11.1,-0.5 0.6,-0.1 1.2,-0.2 1.7,-0.6 0.5,-0.4 1.3,-1.5 0.8,-1.9 -0.3,-0.2 -1,-0.6 -1.3,-0.6 -2.2,0 -2.7,0 -4.9,-0.1 -1.4,0 -3.1,-0.2 -4.7,-0.5 3,-0.1 6,-0.3 8.1,-0.4 1.3,0.5 3,0.8 4.5,1.5 z m -17.2,3.7 c -0.5,0.3 -0.9,0.5 -1.4,0.7 0.2,-0.4 0.5,-0.7 0.8,-1 0.4,0 0.7,0 1.1,0.1 -0.2,0 -0.4,0.1 -0.5,0.2 z"
             class="st1" />
        </g>
        <g
           id="g20"
           style="fill:#c8c8eb;fill-opacity:1;stroke-width:1.91424346">
          <path
             style="fill:#c8c8eb;fill-opacity:1;stroke-width:1.91424346"
             inkscape:connector-curvature="0"
             id="path18"
             d="m 168,144.4 c 0.1,0.1 0.2,0.2 0.3,0.4 0.1,0.1 0.3,0.1 0.4,0.2 z"
             class="st1" />
        </g>
      </g>
    </g>
  </g>
</svg>
