<?xml version="1.0" encoding="UTF-8" standalone="no"?>
<!-- Created with Inkscape (http://www.inkscape.org/) -->

<svg
   xmlns:dc="http://purl.org/dc/elements/1.1/"
   xmlns:cc="http://creativecommons.org/ns#"
   xmlns:rdf="http://www.w3.org/1999/02/22-rdf-syntax-ns#"
   xmlns:svg="http://www.w3.org/2000/svg"
   xmlns="http://www.w3.org/2000/svg"
   xmlns:sodipodi="http://sodipodi.sourceforge.net/DTD/sodipodi-0.dtd"
   xmlns:inkscape="http://www.inkscape.org/namespaces/inkscape"
   width="210mm"
   height="297mm"
   viewBox="0 0 210 297"
   version="1.1"
   id="svg4702"
   inkscape:version="0.92.4 (5da689c313, 2019-01-14)"
   sodipodi:docname="diamond.svg"
   inkscape:export-filename="C:\Users\shavi\Desktop\diamond.png"
   inkscape:export-xdpi="12.095238"
   inkscape:export-ydpi="12.095238">
  <defs
     id="defs4696" />
  <sodipodi:namedview
     id="base"
     pagecolor="#ffffff"
     bordercolor="#666666"
     borderopacity="1.0"
     inkscape:pageopacity="0.0"
     inkscape:pageshadow="2"
     inkscape:zoom="0.7"
     inkscape:cx="-139.6876"
     inkscape:cy="628.28549"
     inkscape:document-units="mm"
     inkscape:current-layer="layer1"
     showgrid="false"
     inkscape:window-width="1920"
     inkscape:window-height="1001"
     inkscape:window-x="-9"
     inkscape:window-y="-9"
     inkscape:window-maximized="1" />
  <metadata
     id="metadata4699">
    <rdf:RDF>
      <cc:Work
         rdf:about="">
        <dc:format>image/svg+xml</dc:format>
        <dc:type
           rdf:resource="http://purl.org/dc/dcmitype/StillImage" />
        <dc:title></dc:title>
      </cc:Work>
    </rdf:RDF>
  </metadata>
  <g
     inkscape:label="Layer 1"
     inkscape:groupmode="layer"
     id="layer1">
    <path
       style="fill:none;stroke:#89f5fa;stroke-width:1;stroke-linecap:butt;stroke-linejoin:miter;stroke-opacity:1;fill-opacity:1"
       d="M 59.720239,68.702372 140.60714,68.324396 165.93155,99.318443 99.785708,161.30654 33.639882,98.562489 Z"
       id="path4735"
       inkscape:connector-curvature="0"
       sodipodi:nodetypes="cccccc" />
    <path
       style="fill:none;stroke:#89f5fa;stroke-width:1;stroke-linecap:butt;stroke-linejoin:miter;stroke-opacity:1;fill-opacity:1"
       d="M 100.14007,69.009476 99.785706,161.30654"
       id="path4737"
       inkscape:connector-curvature="0"
       sodipodi:nodetypes="cc" />
    <path
       style="fill:none;stroke:#89f5fa;stroke-width:1;stroke-linecap:butt;stroke-linejoin:miter;stroke-opacity:1;fill-opacity:1"
       d="M 34.349816,98.529078 165.40002,99.283006"
       id="path4739"
       inkscape:connector-curvature="0"
       sodipodi:nodetypes="cc" />
    <path
       style="fill:none;stroke:#89f5fa;stroke-width:1;stroke-linecap:butt;stroke-linejoin:miter;stroke-opacity:1;fill-opacity:1"
       d="m 78.926153,69.0331 -13.175,29.665152 34.034555,62.608288"
       id="path4741"
       inkscape:connector-curvature="0"
       sodipodi:nodetypes="ccc" />
    <path
       sodipodi:nodetypes="ccc"
       inkscape:connector-curvature="0"
       id="path4745"
       d="M 120.35981,69.0331 133.53488,98.698252 99.500143,161.30654"
       style="fill:none;stroke:#8ef5fa;stroke-width:1;stroke-linecap:butt;stroke-linejoin:miter;stroke-opacity:1;fill-opacity:1" />
    <path
       style="opacity:1;fill:#000000;fill-opacity:1;stroke:#89f5fa;stroke-width:3.7795279;stroke-miterlimit:4;stroke-dasharray:none;stroke-opacity:1"
       d="m 181.63374,370.51981 -49.70059,-0.36443 47.11202,-53.92858 47.11203,-53.92857 23.66,-0.53114 c 13.013,-0.29214 28.66815,-0.45285 34.78923,-0.35715 l 11.12922,0.17401 c -16.22901,36.54433 -16.20801,36.66008 -48.68702,109.63298 l -7.85714,-0.16635 c -4.32143,-0.0915 -30.22242,-0.33033 -57.55775,-0.53077 z"
       id="path4775"
       inkscape:connector-curvature="0"
       transform="scale(0.26458333)"
       sodipodi:nodetypes="scccsscccs" />
    <path
       style="opacity:1;fill:#000000;fill-opacity:1;stroke:#89f5fa;stroke-width:3.7795279;stroke-miterlimit:4;stroke-dasharray:none;stroke-opacity:1"
       d="m 313.27736,371.53794 c -33.93304,-0.19586 -61.71945,-0.37388 -61.74759,-0.39559 16.1425,-39.03827 29.49896,-69.27864 48.47184,-109.29647 0.0419,-0.10595 -0.10792,-0.27538 -0.33295,-0.37652 -0.28464,-0.12791 6.9002,-0.21889 23.6087,-0.29893 13.20982,-0.0633 30.59954,-0.1659 38.64382,-0.22803 l 14.62596,-0.11296 -0.11728,31.67596 c -0.0645,17.42179 -0.16977,42.42374 -0.23392,55.5599 l -0.11663,23.88393 -0.55276,-0.0276 c -0.30402,-0.0152 -28.31616,-0.18784 -62.24919,-0.3837 z"
       id="path4785"
       inkscape:connector-curvature="0"
       transform="scale(0.26458333)"
       sodipodi:nodetypes="cccccscsscccc" />
    <path
       style="opacity:1;fill:#000000;fill-opacity:1;stroke:#89f5fa;stroke-width:3.7795279;stroke-miterlimit:4;stroke-dasharray:none;stroke-opacity:1"
       d="m 491.7595,372.53697 c -24.46942,-0.16458 -100.77936,-0.58969 -105.69724,-0.58882 l -6.05439,10e-4 0.11717,-35.58036 c 0.0644,-19.56919 0.16952,-44.55052 0.2335,-55.51405 l 0.11633,-19.9337 20.46374,-0.11062 c 11.25506,-0.0608 28.13785,-0.14929 37.51732,-0.19656 l 17.05357,-0.0859 -1.19484,0.57668 -1.19484,0.57669 24.00219,54.01786 24.00219,54.01786 0.005,1.47321 0.005,1.47322 -1.5625,-0.0423 c -0.85938,-0.0232 -4.375,-0.0612 -7.8125,-0.0843 z"
       id="path4787"
       inkscape:connector-curvature="0"
       transform="scale(0.26458333)" />
    <path
       style="opacity:1;fill:#000000;fill-opacity:1;stroke:#89f5fa;stroke-width:3.7795279;stroke-miterlimit:4;stroke-dasharray:none;stroke-opacity:1"
       d="m 618.90711,373.25754 c -1.86607,-0.0216 -27.8616,-0.17243 -57.76785,-0.33509 -29.90625,-0.16267 -54.4287,-0.34774 -54.49433,-0.41127 -0.0656,-0.0635 -11.28919,-25.26731 -24.94126,-56.00838 l -24.82194,-55.89286 13.78055,-0.11244 c 7.5793,-0.0618 24.14674,-0.1618 36.81653,-0.22214 l 23.03598,-0.1097 45.98187,56.27534 c 25.29004,30.95143 46.08689,56.42416 46.21522,56.60607 0.20272,0.28732 0.191,0.32542 -0.0893,0.29027 -0.17745,-0.0222 -1.84941,-0.0582 -3.71549,-0.0798 z"
       id="path4789"
       inkscape:connector-curvature="0"
       transform="scale(0.26458333)" />
    <path
       style="opacity:1;fill:#000000;fill-opacity:1;stroke:#89f5fa;stroke-width:3.77952766;stroke-miterlimit:4;stroke-dasharray:none;stroke-opacity:1"
       d="m 383.69811,600.14388 c 0.22852,-0.65426 120.75935,-222.73445 121.29325,-223.48496 41.27449,0.0772 72.72735,0.34303 117.17707,0.62838 L 505.50085,486.5789 c -64.16716,60.11037 -117.8931,110.45385 -119.39097,111.87439 -1.49787,1.42054 -2.58316,2.1813 -2.41177,1.69059 z"
       id="path4791"
       inkscape:connector-curvature="0"
       transform="scale(0.26458333)"
       sodipodi:nodetypes="cccssc" />
    <path
       style="opacity:1;fill:#000000;fill-opacity:1;stroke:#89f5fa;stroke-width:3.7795279;stroke-miterlimit:4;stroke-dasharray:none;stroke-opacity:1"
       d="m 379.21625,584.83172 c 0.10076,-8.34822 0.26482,-48.76786 0.36457,-89.82143 0.0997,-41.05357 0.28256,-84.66211 0.40624,-96.90786 l 0.22488,-22.265 53.25625,0.25735 c 29.29094,0.14154 56.33536,0.35721 60.09872,0.47928 l 6.84248,0.22194 -59.81348,110 c -32.89742,60.5 -60.2071,110.72322 -60.68818,111.60715 l -0.87468,1.60714 z"
       id="path4793"
       inkscape:connector-curvature="0"
       transform="scale(0.26458333)" />
    <path
       style="opacity:1;fill:#000000;fill-opacity:1;stroke:#89f5fa;stroke-width:3.7795279;stroke-miterlimit:4;stroke-dasharray:none;stroke-opacity:1"
       d="m 252.03207,375.36743 c 41.23962,-0.004 81.31948,0.3048 123.92691,0.57273 0,0 -0.74852,225.35017 -0.90096,225.48348 C 331.57373,521.89956 298.66008,461.16765 252.03207,375.36743 Z"
       id="path4795"
       inkscape:connector-curvature="0"
       transform="scale(0.26458333)"
       sodipodi:nodetypes="cccc" />
    <path
       style="opacity:1;fill:#000000;fill-opacity:1;stroke:#89f5fa;stroke-width:3.7795279;stroke-miterlimit:4;stroke-dasharray:none;stroke-opacity:1"
       d="m 132.79587,375.13973 -0.71429,-0.72015 51.60714,0.21183 c 28.38393,0.11651 54.34735,0.30554 57.69649,0.42006 l 6.08935,0.20822 60.78259,111.81289 c 33.43043,61.49708 60.7405,111.85498 60.68904,111.90643 C 286.08679,520.17183 220.53675,459.22536 132.79587,375.13973 Z"
       id="path4797"
       inkscape:connector-curvature="0"
       transform="scale(0.26458333)"
       sodipodi:nodetypes="ccsscscc" />
  </g>
</svg>
