<?xml version="1.0" encoding="UTF-8" standalone="no"?>
<svg
   xmlns:dc="http://purl.org/dc/elements/1.1/"
   xmlns:cc="http://creativecommons.org/ns#"
   xmlns:rdf="http://www.w3.org/1999/02/22-rdf-syntax-ns#"
   xmlns:svg="http://www.w3.org/2000/svg"
   xmlns="http://www.w3.org/2000/svg"
   xmlns:sodipodi="http://sodipodi.sourceforge.net/DTD/sodipodi-0.dtd"
   xmlns:inkscape="http://www.inkscape.org/namespaces/inkscape"
   id="svg16780"
   version="1.1"
   viewBox="0 0 162.13321 59.465279"
   height="59.465279mm"
   width="162.13321mm"
   sodipodi:docname="grass.svg"
   inkscape:version="0.92.4 (5da689c313, 2019-01-14)">
  <sodipodi:namedview
     pagecolor="#ffffff"
     bordercolor="#666666"
     borderopacity="1"
     objecttolerance="10"
     gridtolerance="10"
     guidetolerance="10"
     inkscape:pageopacity="0"
     inkscape:pageshadow="2"
     inkscape:window-width="1920"
     inkscape:window-height="1001"
     id="namedview1132"
     showgrid="false"
     inkscape:zoom="2.3221775"
     inkscape:cx="306.39347"
     inkscape:cy="112.37533"
     inkscape:window-x="-9"
     inkscape:window-y="-9"
     inkscape:window-maximized="1"
     inkscape:current-layer="svg16780" />
  <defs
     id="defs16774" />
  <metadata
     id="metadata16777">
    <rdf:RDF>
      <cc:Work
         rdf:about="">
        <dc:format>image/svg+xml</dc:format>
        <dc:type
           rdf:resource="http://purl.org/dc/dcmitype/StillImage" />
        <dc:title />
      </cc:Work>
    </rdf:RDF>
  </metadata>
  <g
     style="fill:#065f92;fill-opacity:1;stroke:none;stroke-opacity:1"
     id="g7722"
     transform="matrix(0.35277777,0,0,-0.35277777,20.86998,59.361742)">
    <path
       inkscape:connector-curvature="0"
       d="m 0,0 c 0.464,11.824 0.464,23.503 -0.944,35.056 -1.403,11.52 -4.224,22.887 -9.067,33.464 -4.807,10.58 -11.674,20.27 -20.137,28.478 -8.449,8.235 -18.391,14.992 -29.011,20.44 10.997,-4.635 21.53,-10.658 30.818,-18.436 9.297,-7.741 17.246,-17.286 23.152,-28.049 C 0.755,60.201 4.662,48.367 7.053,36.345 9.453,24.311 10.366,12.05 10.8,0.02 Z"
       style="fill:#065f92;fill-opacity:1;fill-rule:nonzero;stroke:none;stroke-opacity:1"
       id="path7724" />
  </g>
  <g
     style="fill:#065f92;fill-opacity:1;stroke:none;stroke-opacity:1"
     id="g7726"
     transform="matrix(0.35277777,0,0,-0.35277777,27.99528,59.343462)">
    <path
       inkscape:connector-curvature="0"
       d="m 0,0 c 0.59,13.079 3.444,25.656 7.821,37.671 4.415,11.984 10.636,23.34 18.738,33.164 8.083,9.83 18.083,18.008 29.217,23.824 11.138,5.843 23.278,9.355 35.534,11.033 C 79.204,103.13 67.494,98.766 57.116,92.315 46.732,85.886 37.797,77.382 30.845,67.55 23.875,57.719 18.826,46.645 15.514,35.136 12.234,23.64 10.459,11.597 10.8,-0.085 Z"
       style="fill:#065f92;fill-opacity:1;fill-rule:nonzero;stroke:none;stroke-opacity:1"
       id="path7728" />
  </g>
  <g
     style="fill:#065f92;fill-opacity:1;stroke:none;stroke-opacity:1"
     id="g7730"
     transform="matrix(0.35277777,0,0,-0.35277777,48.7408,59.354862)">
    <path
       inkscape:connector-curvature="0"
       d="m 0,0 c 0.459,14.95 1.506,29.877 3.153,44.725 1.655,14.847 3.929,29.633 7.119,44.236 3.228,14.579 7.312,29.033 13.195,42.79 5.893,13.636 13.621,26.998 25.142,36.499 C 37.705,158.071 30.964,144.504 25.978,130.762 21.026,116.908 17.879,102.477 15.579,87.962 13.318,73.429 11.966,58.76 11.227,44.07 10.497,29.378 10.359,14.667 10.8,-0.021 Z"
       style="fill:#065f92;fill-opacity:1;fill-rule:nonzero;stroke:none;stroke-opacity:1"
       id="path7732" />
  </g>
  <g
     style="fill:#065f92;fill-opacity:1;stroke:none;stroke-opacity:1"
     id="g7734"
     transform="matrix(0.35277777,0,0,-0.35277777,112.28109,59.370342)">
    <path
       inkscape:connector-curvature="0"
       d="m 0,0 c 0.415,13.325 -0.529,26.775 -2.12,40.199 -1.624,13.418 -3.95,26.797 -6.91,40.045 -2.969,13.245 -6.56,26.376 -11.049,39.211 -4.58,12.764 -9.763,25.504 -17.731,36.64 8.701,-10.6 14.789,-23.108 20.247,-35.662 5.378,-12.637 9.877,-25.646 13.761,-38.835 C 0.074,68.399 3.326,55.005 5.885,41.433 8.408,27.866 10.31,14.067 10.8,0.068 Z"
       style="fill:#065f92;fill-opacity:1;fill-rule:nonzero;stroke:none;stroke-opacity:1"
       id="path7736" />
  </g>
  <g
     style="fill:#065f92;fill-opacity:1;stroke:none;stroke-opacity:1"
     id="g7738"
     transform="matrix(0.35277777,0,0,-0.35277777,122.86118,59.358282)">
    <path
       inkscape:connector-curvature="0"
       d="m 0,0 c 0.453,14.212 0.91,28.292 0.256,42.288 -0.638,13.983 -2.437,27.896 -6.12,41.392 -3.66,13.491 -9.202,26.513 -16.417,38.634 -7.198,12.134 -15.967,23.384 -25.694,33.747 10.362,-9.728 19.889,-20.453 27.97,-32.296 8.095,-11.826 14.642,-24.812 19.304,-38.5 C 3.986,71.577 6.765,57.26 8.331,42.925 9.914,28.575 10.352,14.201 10.8,0 Z"
       style="fill:#065f92;fill-opacity:1;fill-rule:nonzero;stroke:none;stroke-opacity:1"
       id="path7740" />
  </g>
  <g
     style="fill:#065f92;fill-opacity:1;stroke:none;stroke-opacity:1"
     id="g7742"
     transform="matrix(0.35277777,0,0,-0.35277777,129.08128,59.344522)">
    <path
       inkscape:connector-curvature="0"
       d="m 0,0 c 0.467,12.267 2.5,24.589 6.354,36.269 3.841,11.68 9.558,22.806 17.295,32.33 7.698,9.541 17.426,17.338 28.228,22.718 10.8,5.433 22.555,8.48 34.349,9.804 C 74.563,98.909 63.212,94.998 53.176,88.95 43.125,82.949 34.499,74.838 27.967,65.354 21.397,55.881 16.88,45.136 14.135,34.017 11.38,22.869 10.367,11.398 10.8,-0.079 Z"
       style="fill:#065f92;fill-opacity:1;fill-rule:nonzero;stroke:none;stroke-opacity:1"
       id="path7744" />
  </g>
  <g
     style="fill:#065f92;fill-opacity:1;stroke:none;stroke-opacity:1"
     id="g7746"
     transform="matrix(0.35277777,0,0,-0.35277777,61.530017,59.351052)">
    <path
       inkscape:connector-curvature="0"
       d="m 0,0 c 0.936,25.17 4.793,50.343 12.701,74.213 3.971,11.914 8.997,23.491 15.34,34.287 6.334,10.785 14.022,20.784 23.11,29.24 C 42.701,128.646 35.856,118.233 30.417,107.217 24.973,96.188 20.9,84.554 17.882,72.689 11.886,48.919 9.937,24.335 10.8,-0.042 Z"
       style="fill:#065f92;fill-opacity:1;fill-rule:nonzero;stroke:none;stroke-opacity:1"
       id="path7748" />
  </g>
  <g
     style="fill:#065f92;fill-opacity:1;stroke:none;stroke-opacity:1"
     id="g7750"
     transform="matrix(0.35277777,0,0,-0.35277777,77.670127,59.351402)">
    <path
       inkscape:connector-curvature="0"
       d="m 0,0 c 0.451,13.135 1.678,26.363 4.108,39.356 2.418,12.996 6.084,25.779 11.159,37.944 5.061,12.172 11.535,23.697 19.169,34.307 7.623,10.624 16.382,20.333 25.864,29.184 C 51.454,131.304 43.445,121.068 36.68,110.108 29.904,99.158 24.393,87.497 20.319,75.396 16.232,63.294 13.571,50.779 12.117,38.139 10.651,25.485 10.35,12.752 10.8,-0.04 Z"
       style="fill:#065f92;fill-opacity:1;fill-rule:nonzero;stroke:none;stroke-opacity:1"
       id="path7752" />
  </g>
  <g
     style="fill:#065f92;fill-opacity:1;stroke:none;stroke-opacity:1"
     id="g7754"
     transform="matrix(0.35277777,0,0,-0.35277777,22.077291,59.378632)">
    <path
       inkscape:connector-curvature="0"
       d="m 0,0 c 0.441,8.378 -0.243,16.65 -2.434,24.66 -2.178,7.972 -5.902,15.583 -11.334,21.906 -5.393,6.336 -12.577,11.241 -20.705,13.883 -8.125,2.671 -17.05,3.048 -25.702,1.626 8.456,2.294 17.563,2.904 26.404,0.984 8.829,-1.892 17.224,-6.371 23.902,-12.757 C -3.146,43.94 1.902,35.872 5.25,27.226 8.617,18.587 10.344,9.26 10.8,0.114 Z"
       style="fill:#065f92;fill-opacity:1;fill-rule:nonzero;stroke:none;stroke-opacity:1"
       id="path7756" />
  </g>
  <g
     style="fill:#065f92;fill-opacity:1;stroke:none;stroke-opacity:1"
     id="g7758"
     transform="matrix(0.35277777,0,0,-0.35277777,27.99528,59.360712)">
    <path
       inkscape:connector-curvature="0"
       d="m 0,0 c 0.44,10.98 0.761,21.87 0.161,32.653 -0.593,10.77 -2.2,21.443 -5.585,31.652 -3.352,10.211 -8.495,19.871 -14.905,28.709 -6.4,8.855 -13.965,16.925 -22.054,24.421 8.672,-6.814 16.923,-14.272 24.176,-22.75 C -10.953,86.229 -4.776,76.661 -0.373,66.212 4.068,55.773 6.691,44.604 8.223,33.444 9.764,22.271 10.339,11.076 10.8,0.013 Z"
       style="fill:#065f92;fill-opacity:1;fill-rule:nonzero;stroke:none;stroke-opacity:1"
       id="path7760" />
  </g>
  <g
     style="fill:#065f92;fill-opacity:1;stroke:none;stroke-opacity:1"
     id="g7762"
     transform="matrix(0.35277777,0,0,-0.35277777,41.086298,59.343462)">
    <path
       inkscape:connector-curvature="0"
       d="m 0,0 c 0.507,10.226 2.468,20.131 5.201,29.717 2.767,9.583 6.424,18.883 11.084,27.657 4.659,8.755 10.362,17.012 17.371,24 6.976,6.983 15.369,12.606 24.611,15.678 C 49.349,93.13 41.732,86.885 35.647,79.551 29.534,72.204 24.828,63.813 21.163,55.055 17.498,46.285 14.848,37.114 13.078,27.828 11.335,18.54 10.392,9.113 10.8,-0.085 Z"
       style="fill:#065f92;fill-opacity:1;fill-rule:nonzero;stroke:none;stroke-opacity:1"
       id="path7764" />
  </g>
  <g
     style="fill:#065f92;fill-opacity:1;stroke:none;stroke-opacity:1"
     id="g7766"
     transform="matrix(0.35277777,0,0,-0.35277777,83.408797,59.367952)">
    <path
       inkscape:connector-curvature="0"
       d="m 0,0 c 0.437,10.596 -0.119,21.236 -1.596,31.804 -1.49,10.552 -3.923,21.011 -7.523,31.087 -3.603,10.062 -8.384,19.766 -14.663,28.514 -6.257,8.744 -14.055,16.495 -23.178,22.491 9.585,-5.219 18.158,-12.4 25.304,-20.827 C -14.484,84.644 -8.708,75.035 -4.114,64.922 0.477,54.793 3.907,44.142 6.369,33.27 8.82,22.399 10.335,11.254 10.8,0.055 Z"
       style="fill:#065f92;fill-opacity:1;fill-rule:nonzero;stroke:none;stroke-opacity:1"
       id="path7768" />
  </g>
  <g
     style="fill:#065f92;fill-opacity:1;stroke:none;stroke-opacity:1"
     id="g7770"
     transform="matrix(0.35277777,0,0,-0.35277777,107.20268,59.346922)">
    <path
       inkscape:connector-curvature="0"
       d="M 0,0 C 0.503,14.138 2.703,28.111 6.322,41.664 9.975,55.2 15.164,68.38 22.37,80.427 c 7.179,12.025 16.513,22.875 27.856,31.01 11.312,8.169 24.509,13.373 38.034,15.616 C 74.903,123.925 62.29,117.918 51.871,109.296 41.417,100.698 33.193,89.734 27.089,77.804 20.966,65.852 16.84,52.949 14.207,39.809 11.603,26.652 10.396,13.229 10.8,-0.065 Z"
       style="fill:#065f92;fill-opacity:1;fill-rule:nonzero;stroke:none;stroke-opacity:1"
       id="path7772" />
  </g>
  <g
     style="fill:#065f92;fill-opacity:1;stroke:none;stroke-opacity:1"
     id="g7774"
     transform="matrix(0.35277777,0,0,-0.35277777,120.5302,59.343152)">
    <path
       inkscape:connector-curvature="0"
       d="M 0,0 C 0.472,12.589 2.591,25.248 6.724,37.215 10.85,49.153 17.159,60.58 26.2,69.586 c 8.975,9.046 20.833,15.03 33.131,16.981 12.323,2.041 24.79,0.617 36.553,-2.479 -11.96,2.227 -24.369,2.67 -36.012,-0.165 C 48.228,81.165 37.742,74.767 30.139,65.894 22.478,57.037 17.463,46.149 14.467,34.835 11.467,23.471 10.369,11.691 10.8,-0.086 Z"
       style="fill:#065f92;fill-opacity:1;fill-rule:nonzero;stroke:none;stroke-opacity:1"
       id="path7776" />
  </g>
  <g
     style="fill:#065f92;fill-opacity:1;stroke:none;stroke-opacity:1"
     id="g7778"
     transform="matrix(0.35277777,0,0,-0.35277777,57.315981,59.374822)">
    <path
       inkscape:connector-curvature="0"
       d="m 0,0 c 0.41,10.451 -0.651,21.088 -2.441,31.651 -1.814,10.562 -4.434,21.041 -7.803,31.287 -3.392,10.231 -7.524,20.265 -12.798,29.706 -5.317,9.348 -11.694,18.429 -20.613,24.831 9.437,-5.648 16.725,-14.349 22.91,-23.412 C -14.583,84.896 -9.523,75.015 -5.19,64.841 -0.882,54.65 2.693,44.135 5.477,33.354 8.229,22.584 10.296,11.489 10.8,0.093 Z"
       style="fill:#065f92;fill-opacity:1;fill-rule:nonzero;stroke:none;stroke-opacity:1"
       id="path7780" />
  </g>
  <g
     style="fill:#065f92;fill-opacity:1;stroke:none;stroke-opacity:1"
     id="g7782"
     transform="matrix(0.35277777,0,0,-0.35277777,37.32029,59.351052)">
    <path
       inkscape:connector-curvature="0"
       d="m 0,0 c 0.909,22.71 3.823,45.645 10.74,67.408 3.441,10.872 7.912,21.391 13.32,31.338 5.398,9.96 11.707,19.331 18.448,28.318 C 36.505,117.565 30.997,107.761 26.482,97.554 21.956,87.354 18.434,76.771 15.946,65.978 10.95,44.357 9.914,22.112 10.8,-0.042 Z"
       style="fill:#065f92;fill-opacity:1;fill-rule:nonzero;stroke:none;stroke-opacity:1"
       id="path7784" />
  </g>
  <g
     style="fill:#065f92;fill-opacity:1;stroke:none;stroke-opacity:1"
     id="g7786"
     transform="matrix(0.35277777,0,0,-0.35277777,80.360237,59.341422)">
    <path
       inkscape:connector-curvature="0"
       d="M 0,0 C 0.478,11.774 2.812,23.34 6.181,34.354 9.569,45.394 14.02,56.003 19.25,66.15 29.763,86.39 43.259,105.06 59.791,120.429 44.55,103.802 32.788,84.353 24.145,63.867 19.852,53.604 16.39,43.026 14.014,32.286 11.647,21.536 10.37,10.676 10.8,-0.097 Z"
       style="fill:#065f92;fill-opacity:1;fill-rule:nonzero;stroke:none;stroke-opacity:1"
       id="path7788" />
  </g>
  <g
     style="fill:#065f92;fill-opacity:1;stroke:none;stroke-opacity:1"
     id="g7790"
     transform="matrix(0.35277777,0,0,-0.35277777,100.8036,59.349002)">
    <path
       inkscape:connector-curvature="0"
       d="m 0,0 c 0.497,11.594 2.117,23.003 4.565,34.204 2.471,11.194 5.84,22.195 10.372,32.711 4.527,10.503 10.255,20.546 17.541,29.335 7.243,8.797 16.188,16.201 26.298,21.151 C 49.091,111.651 40.957,103.692 34.623,94.61 28.25,85.528 23.52,75.421 19.976,64.974 16.43,54.516 14.044,43.689 12.539,32.774 11.053,21.858 10.39,10.827 10.8,-0.053 Z"
       style="fill:#065f92;fill-opacity:1;fill-rule:nonzero;stroke:none;stroke-opacity:1"
       id="path7792" />
  </g>
  <g
     style="fill:#065f92;fill-opacity:1;stroke:none;stroke-opacity:1"
     id="g7794"
     transform="matrix(0.35277777,0,0,-0.35277777,117.66113,59.317642)">
    <path
       inkscape:connector-curvature="0"
       d="m 0,0 c 0.253,5.906 1.718,11.86 3.824,17.175 2.112,5.374 4.849,10.368 7.978,15.029 6.281,9.309 14.081,17.35 22.84,24.028 8.775,6.639 18.608,11.928 29.136,14.927 10.483,3.006 21.789,3.483 32.106,0.402 C 85.338,73.758 74.432,72.315 64.619,68.592 54.763,64.868 45.838,59.034 38.08,52.067 30.341,45.073 23.688,36.897 18.701,27.96 13.774,19.032 10.389,9.265 10.797,-0.23 Z"
       style="fill:#065f92;fill-opacity:1;fill-rule:nonzero;stroke:none;stroke-opacity:1"
       id="path7796" />
  </g>
  <g
     style="fill:#065f92;fill-opacity:1;stroke:none;stroke-opacity:1"
     id="g7798"
     transform="matrix(0.35277777,0,0,-0.35277777,130.8753,59.322122)">
    <path
       inkscape:connector-curvature="0"
       d="m 0,0 c 0.286,5.381 1.74,10.401 3.52,14.998 1.798,4.632 4.043,8.973 6.55,13.112 5.036,8.263 11.201,15.694 18.204,22.151 7.002,6.452 14.899,11.893 23.424,15.913 8.515,4.029 17.669,6.565 26.901,7.432 C 69.491,71.847 60.795,68.473 52.964,63.789 45.125,59.113 38.124,53.19 32.115,46.466 26.109,39.74 21.037,32.217 17.179,24.228 15.262,20.234 13.63,16.123 12.473,11.975 11.312,7.813 10.597,3.695 10.797,-0.206 Z"
       style="fill:#065f92;fill-opacity:1;fill-rule:nonzero;stroke:none;stroke-opacity:1"
       id="path7800" />
  </g>
  <g
     style="fill:#065f92;fill-opacity:1;stroke:none;stroke-opacity:1"
     id="g7802"
     transform="matrix(0.35277777,0,0,-0.35277777,26.026744,59.371722)">
    <path
       inkscape:connector-curvature="0"
       d="m 0,0 c 0.438,8.222 -0.05,16.486 -1.379,24.695 -1.341,8.189 -3.519,16.288 -6.788,23.948 -3.276,7.631 -7.674,14.884 -13.665,20.735 -5.938,5.858 -13.665,10.094 -22.172,11.486 8.593,-0.481 17.062,-3.95 23.95,-9.455 6.942,-5.48 12.416,-12.67 16.729,-20.375 C 0.986,43.297 4.192,34.979 6.534,26.427 8.862,17.881 10.334,9.007 10.8,0.075 Z"
       style="fill:#065f92;fill-opacity:1;fill-rule:nonzero;stroke:none;stroke-opacity:1"
       id="path7804" />
  </g>
  <g
     style="fill:#065f92;fill-opacity:1;stroke:none;stroke-opacity:1"
     id="g7806"
     transform="matrix(0.35277777,0,0,-0.35277777,43.148884,59.330062)">
    <path
       inkscape:connector-curvature="0"
       d="m 0,0 c 0.505,8.106 2.914,15.7 5.905,22.669 3.044,6.995 6.79,13.531 10.993,19.695 4.209,6.16 8.884,11.961 14.04,17.275 5.18,5.243 10.8,10.265 17.416,13.478 C 42.208,69.127 37.381,63.578 32.984,57.877 28.628,52.113 24.818,45.963 21.534,39.595 18.254,33.227 15.498,26.616 13.516,19.896 11.563,13.166 10.369,6.373 10.8,-0.16 Z"
       style="fill:#065f92;fill-opacity:1;fill-rule:nonzero;stroke:none;stroke-opacity:1"
       id="path7808" />
  </g>
  <g
     style="fill:#065f92;fill-opacity:1;stroke:none;stroke-opacity:1"
     id="g7810"
     transform="matrix(0.35277777,0,0,-0.35277777,54.266887,59.377222)">
    <path
       inkscape:connector-curvature="0"
       d="M 0,0 C 0.425,7.298 0.472,14.319 -0.11,21.511 -0.677,28.648 -1.816,35.757 -3.69,42.706 -7.391,56.601 -14.256,69.834 -24.083,80.88 -12.991,71.132 -4.218,58.479 1.425,44.436 4.272,37.424 6.39,30.101 7.909,22.656 9.44,15.263 10.329,7.539 10.8,0.107 Z"
       style="fill:#065f92;fill-opacity:1;fill-rule:nonzero;stroke:none;stroke-opacity:1"
       id="path7812" />
  </g>
  <g
     style="fill:#065f92;fill-opacity:1;stroke:none;stroke-opacity:1"
     id="g7814"
     transform="matrix(0.35277777,0,0,-0.35277777,59.736671,59.341422)">
    <path
       inkscape:connector-curvature="0"
       d="m 0,0 c 0.553,10.148 2.74,19.742 5.511,29.081 2.823,9.325 6.423,18.368 10.809,26.999 4.394,8.62 9.607,16.84 15.842,24.196 6.231,7.33 13.558,13.802 21.942,18.327 C 46.189,93.302 39.666,86.298 34.298,78.625 28.937,70.925 24.673,62.531 21.241,53.856 17.818,45.172 15.198,36.187 13.365,27.1 11.573,18.024 10.42,8.771 10.8,-0.097 Z"
       style="fill:#065f92;fill-opacity:1;fill-rule:nonzero;stroke:none;stroke-opacity:1"
       id="path7816" />
  </g>
  <g
     style="fill:#065f92;fill-opacity:1;stroke:none;stroke-opacity:1"
     id="g7818"
     transform="matrix(0.35277777,0,0,-0.35277777,67.158622,59.334542)">
    <path
       inkscape:connector-curvature="0"
       d="M 0,0 C 0.458,5.849 1.549,11.767 3.125,17.371 4.706,23.004 6.781,28.451 9.326,33.636 14.409,43.97 21.446,53.4 30.432,60.171 22.662,52.051 17.518,42.009 14.343,31.639 12.759,26.438 11.672,21.12 11.069,15.792 10.47,10.437 10.357,5.194 10.8,-0.136 Z"
       style="fill:#065f92;fill-opacity:1;fill-rule:nonzero;stroke:none;stroke-opacity:1"
       id="path7820" />
  </g>
  <g
     style="fill:#065f92;fill-opacity:1;stroke:none;stroke-opacity:1"
     id="g7822"
     transform="matrix(0.35277777,0,0,-0.35277777,75.408224,59.324522)">
    <path
       inkscape:connector-curvature="0"
       d="m 0,0 c 0.303,5.193 1.547,9.851 2.89,14.338 1.387,4.487 3.024,8.815 4.82,13.056 3.604,8.47 7.841,16.595 12.669,24.345 4.84,7.733 10.273,15.124 16.624,21.671 6.33,6.461 13.73,12.356 22.412,14.945 C 51.058,84.904 44.532,78.483 39.029,71.625 33.53,64.686 29.007,57.025 25.096,49.109 21.199,41.185 17.916,32.959 15.313,24.599 14.017,20.419 12.894,16.2 12.046,11.997 11.225,7.798 10.605,3.604 10.797,-0.191 Z"
       style="fill:#065f92;fill-opacity:1;fill-rule:nonzero;stroke:none;stroke-opacity:1"
       id="path7824" />
  </g>
  <g
     style="fill:#065f92;fill-opacity:1;stroke:none;stroke-opacity:1"
     id="g7826"
     transform="matrix(0.35277777,0,0,-0.35277777,85.112537,59.354862)">
    <path
       inkscape:connector-curvature="0"
       d="M 0,0 C 0.517,11.907 1.2,23.542 1.326,35.263 1.479,46.961 1.2,58.661 0.213,70.312 c -0.991,11.644 -2.673,23.252 -5.492,34.621 -2.815,11.357 -6.787,22.505 -12.548,32.818 6.532,-9.844 11.415,-20.786 15.141,-32.066 C 1.05,94.389 3.661,82.728 5.572,70.975 7.48,59.215 8.67,47.346 9.423,35.469 10.202,23.609 10.415,11.655 10.8,-0.02 Z"
       style="fill:#065f92;fill-opacity:1;fill-rule:nonzero;stroke:none;stroke-opacity:1"
       id="path7828" />
  </g>
  <g
     style="fill:#065f92;fill-opacity:1;stroke:none;stroke-opacity:1"
     id="g7830"
     transform="matrix(0.35277777,0,0,-0.35277777,95.044257,59.366222)">
    <path
       inkscape:connector-curvature="0"
       d="m 0,0 c 0.309,11.951 0.113,24.418 0.729,36.73 0.566,12.345 1.701,24.716 3.959,36.919 2.289,12.172 5.661,24.27 11.266,35.38 5.534,11.062 13.677,21.1 24.326,27.264 C 30.117,129.348 22.981,118.991 18.406,107.898 13.777,96.753 11.38,84.821 10.029,72.854 8.712,60.859 8.492,48.755 8.83,36.656 9.117,24.511 10.199,12.541 10.8,0.044 Z"
       style="fill:#065f92;fill-opacity:1;fill-rule:nonzero;stroke:none;stroke-opacity:1"
       id="path7832" />
  </g>
  <g
     style="fill:#065f92;fill-opacity:1;stroke:none;stroke-opacity:1"
     id="g7834"
     transform="matrix(0.35277777,0,0,-0.35277777,104.66021,59.354502)">
    <path
       inkscape:connector-curvature="0"
       d="m 0,0 c 0.944,16.083 3.043,32.071 6.856,47.678 1.933,7.789 4.316,15.487 7.498,22.853 3.186,7.335 7.186,14.435 12.648,20.204 C 22.239,84.386 19.169,77.058 16.888,69.6 14.623,62.115 13.171,54.416 12.163,46.679 10.201,31.184 9.941,15.504 10.8,-0.022 Z"
       style="fill:#065f92;fill-opacity:1;fill-rule:nonzero;stroke:none;stroke-opacity:1"
       id="path7836" />
  </g>
  <g
     style="fill:#065f92;fill-opacity:1;stroke:none;stroke-opacity:1"
     id="g7838"
     transform="matrix(0.35277777,0,0,-0.35277777,113.44656,59.349002)">
    <path
       inkscape:connector-curvature="0"
       d="m 0,0 c 0.446,10.311 2.131,20.753 5.53,30.603 3.375,9.857 8.519,19.091 15.126,26.98 6.548,7.933 14.653,14.425 23.046,19.773 L 68.513,94.014 45.307,75.186 C 37.437,69.101 30.42,62.292 24.95,54.309 19.457,46.386 15.55,37.528 13.295,28.298 11.024,19.052 10.349,9.522 10.8,-0.053 Z"
       style="fill:#065f92;fill-opacity:1;fill-rule:nonzero;stroke:none;stroke-opacity:1"
       id="path7840" />
  </g>
  <g
     style="fill:#065f92;fill-opacity:1;stroke:none;stroke-opacity:1"
     id="g7842"
     transform="matrix(0.35277777,0,0,-0.35277777,122.86118,59.364142)">
    <path
       inkscape:connector-curvature="0"
       d="m 0,0 c 0.883,12.881 1.22,25.732 -0.105,38.488 -0.682,6.363 -1.791,12.696 -3.728,18.808 -1.941,6.087 -4.739,12.009 -9.016,16.975 C -7.924,69.946 -4.185,64.279 -1.324,58.29 1.544,52.276 3.599,45.895 5.21,39.437 8.4,26.499 9.884,13.197 10.8,0.033 Z"
       style="fill:#065f92;fill-opacity:1;fill-rule:nonzero;stroke:none;stroke-opacity:1"
       id="path7844" />
  </g>
  <g
     style="fill:#065f92;fill-opacity:1;stroke:none;stroke-opacity:1"
     id="g7846"
     transform="matrix(0.35277777,0,0,-0.35277777,125.73921,59.350732)">
    <path
       inkscape:connector-curvature="0"
       d="m 0,0 c 0.456,6.686 1.267,13.467 2.733,20.113 1.47,6.645 3.597,13.235 6.85,19.305 3.224,6.062 7.719,11.538 13.28,15.441 5.549,3.934 11.983,6.197 18.438,7.172 C 35.03,60.181 29.167,57.098 24.563,52.763 19.939,48.442 16.637,43.005 14.499,37.18 12.341,31.345 11.242,25.146 10.741,18.895 10.245,12.627 10.356,6.326 10.8,-0.044 Z"
       style="fill:#065f92;fill-opacity:1;fill-rule:nonzero;stroke:none;stroke-opacity:1"
       id="path7848" />
  </g>
  <g
     style="fill:#065f92;fill-opacity:1;stroke:none;stroke-opacity:1"
     id="g7850"
     transform="matrix(0.35277777,0,0,-0.35277777,137.3874,59.360362)">
    <path
       inkscape:connector-curvature="0"
       d="m 0,0 c 0.462,8.813 0.708,17.461 0.077,26.066 -0.618,8.588 -2.104,17.107 -4.938,25.224 -2.82,8.107 -7.033,15.789 -12.67,22.446 -5.609,6.678 -12.561,12.301 -20.221,16.789 8.071,-3.688 15.69,-8.633 22.194,-14.946 C -9.032,69.298 -3.735,61.649 0.138,53.335 4.03,45.015 6.539,36.08 8.113,27.075 9.704,18.066 10.362,8.935 10.8,0.011 Z"
       style="fill:#065f92;fill-opacity:1;fill-rule:nonzero;stroke:none;stroke-opacity:1"
       id="path7852" />
  </g>
  <g
     style="fill:#065f92;fill-opacity:1;stroke:none;stroke-opacity:1"
     id="g7854"
     transform="matrix(0.35277777,0,0,-0.35277777,99.548207,59.367242)">
    <path
       inkscape:connector-curvature="0"
       d="m 0,0 c 0.408,9.77 -0.063,19.728 -1.076,29.608 -1.042,9.883 -2.681,19.732 -5.161,29.373 -2.484,9.631 -5.79,19.096 -10.489,27.895 -4.69,8.752 -10.916,16.926 -19.295,22.669 8.865,-4.968 16.014,-12.737 21.614,-21.287 C -8.78,79.664 -4.51,70.233 -1.074,60.562 2.36,50.876 4.949,40.904 6.934,30.813 8.886,20.71 10.299,10.494 10.8,0.051 Z"
       style="fill:#065f92;fill-opacity:1;fill-rule:nonzero;stroke:none;stroke-opacity:1"
       id="path7856" />
  </g>
  <g
     style="fill:#065f92;fill-opacity:1;stroke:none;stroke-opacity:1"
     id="g7858"
     transform="matrix(0.35277777,0,0,-0.35277777,71.573847,59.359342)">
    <path
       inkscape:connector-curvature="0"
       d="m 0,0 c 0.482,12.021 0.655,23.843 -0.412,35.629 -1.036,11.767 -3.251,23.44 -6.958,34.7 -3.699,11.255 -8.88,22.075 -15.432,32.088 -6.531,10.026 -14.4,19.234 -23.179,27.527 9.37,-7.614 17.984,-16.271 25.384,-25.967 C -13.179,94.3 -7.011,83.584 -2.309,72.209 2.405,60.834 5.63,48.825 7.624,36.652 9.651,24.482 10.383,12.113 10.8,0.005 Z"
       style="fill:#065f92;fill-opacity:1;fill-rule:nonzero;stroke:none;stroke-opacity:1"
       id="path7860" />
  </g>
  <g
     style="fill:#065f92;fill-opacity:1;stroke:none;stroke-opacity:1"
     id="g7862"
     transform="matrix(0.35277777,0,0,-0.35277777,39.388732,59.347272)">
    <path
       inkscape:connector-curvature="0"
       d="M 0,0 C 0.514,13.714 2.893,26.625 3.595,39.527 4.417,52.43 3.884,65.411 2.179,78.34 -1.254,104.219 -8.629,129.657 -17.238,154.539 -6.955,130.288 2.192,105.369 7.507,79.222 10.147,66.166 11.631,52.751 11.692,39.313 11.858,25.858 10.378,12.596 10.8,-0.063 Z"
       style="fill:#065f92;fill-opacity:1;fill-rule:nonzero;stroke:none;stroke-opacity:1"
       id="path7864" />
  </g>
  <g
     style="fill:#065f92;fill-opacity:1;stroke:none;stroke-opacity:1"
     id="g7870"
     transform="matrix(0.35277777,0,0,-0.35277777,31.402654,59.369322)">
    <path
       inkscape:connector-curvature="0"
       d="m 0,0 c 0.418,12.979 -0.485,26.049 -2.532,38.959 -2.081,12.894 -5.337,25.651 -10.348,37.722 -5.009,12.027 -11.832,23.465 -21.258,32.593 -9.344,9.166 -21.529,15.528 -34.68,17.842 13.261,-1.411 26.172,-6.999 36.489,-15.837 10.396,-8.784 18.317,-20.217 24.361,-32.356 C -1.916,66.737 2.354,53.743 5.416,40.515 8.444,27.278 10.314,13.727 10.8,0.062 Z"
       style="fill:#065f92;fill-opacity:1;fill-rule:nonzero;stroke:none;stroke-opacity:1"
       id="path7872" />
  </g>
  <g
     style="fill:#065f92;fill-opacity:1;stroke:none;stroke-opacity:1"
     id="g7874"
     transform="matrix(0.35277777,0,0,-0.35277777,32.533695,59.369672)">
    <path
       inkscape:connector-curvature="0"
       d="m 0,0 c 0.334,11.106 -0.336,22.855 0.092,34.54 0.366,11.702 1.574,23.5 4.416,34.942 2.808,11.435 7.341,22.476 13.692,32.302 6.35,9.829 14.46,18.371 23.644,25.333 C 33.227,119.459 25.927,110.41 20.523,100.407 15.114,90.398 11.623,79.505 9.794,68.384 7.938,57.249 7.662,45.916 8.192,34.595 8.658,23.229 10.209,12.002 10.8,0.063 Z"
       style="fill:#065f92;fill-opacity:1;fill-rule:nonzero;stroke:none;stroke-opacity:1"
       id="path7876" />
  </g>
  <g
     style="fill:#065f92;fill-opacity:1;stroke:none;stroke-opacity:1"
     id="g7878"
     transform="matrix(0.35277777,0,0,-0.35277777,41.086298,59.366222)">
    <path
       inkscape:connector-curvature="0"
       d="m 0,0 c 0.444,13.801 -0.084,27.571 -1.829,41.256 -1.745,13.669 -4.723,27.209 -9.152,40.309 -4.423,13.099 -10.318,25.746 -17.717,37.532 -7.385,11.792 -16.295,22.683 -26.393,32.411 10.7,-9.06 20.376,-19.429 28.633,-30.904 C -18.19,109.14 -11.327,96.611 -5.925,83.459 4.918,57.124 9.898,28.503 10.8,0.044 Z"
       style="fill:#065f92;fill-opacity:1;fill-rule:nonzero;stroke:none;stroke-opacity:1"
       id="path7880" />
  </g>
  <g
     style="fill:#065f92;fill-opacity:1;stroke:none;stroke-opacity:1"
     id="g7882"
     transform="matrix(0.35277777,0,0,-0.35277777,45.390258,59.344522)">
    <path
       inkscape:connector-curvature="0"
       d="M 0,0 C 0.448,10.988 2.203,21.981 5.081,32.518 7.956,43.076 11.95,53.255 16.85,62.909 26.661,82.22 40.049,99.415 55.725,113.83 41.32,98.146 29.645,80.097 21.762,60.666 13.875,41.245 9.881,20.461 10.8,-0.079 Z"
       style="fill:#065f92;fill-opacity:1;fill-rule:nonzero;stroke:none;stroke-opacity:1"
       id="path7884" />
  </g>
  <g
     style="fill:#065f92;fill-opacity:1;stroke:none;stroke-opacity:1"
     id="g7886"
     transform="matrix(0.35277777,0,0,-0.35277777,34.809853,59.365512)">
    <path
       inkscape:connector-curvature="0"
       d="m 0,0 c 0.443,14.528 0.019,28.987 -2.007,43.284 -1.999,14.285 -5.64,28.354 -11.122,41.771 -5.455,13.426 -12.725,26.162 -21.31,38 -8.577,11.854 -18.444,22.813 -29.041,33.026 11.199,-9.546 21.772,-19.922 31.177,-31.377 9.413,-11.435 17.639,-23.968 24.108,-37.457 C -1.699,73.773 2.99,59.381 5.974,44.666 8.988,29.957 10.346,14.928 10.8,0.04 Z"
       style="fill:#065f92;fill-opacity:1;fill-rule:nonzero;stroke:none;stroke-opacity:1"
       id="path7888" />
  </g>
  <g
     style="fill:#065f92;fill-opacity:1;stroke:none;stroke-opacity:1"
     id="g7890"
     transform="matrix(0.35277777,0,0,-0.35277777,51.846549,59.340712)">
    <path
       inkscape:connector-curvature="0"
       d="m 0,0 c 0.454,7.775 1.943,15.681 4.62,23.038 2.663,7.381 6.503,14.279 11.293,20.32 C 25.498,55.505 38.679,64 52.675,68.831 39.348,62.343 27.758,52.492 20.337,40.261 16.612,34.172 13.941,27.547 12.382,20.723 10.813,13.876 10.355,6.937 10.8,-0.101 Z"
       style="fill:#065f92;fill-opacity:1;fill-rule:nonzero;stroke:none;stroke-opacity:1"
       id="path7892" />
  </g>
  <g
     style="fill:#065f92;fill-opacity:1;stroke:none;stroke-opacity:1"
     id="g7894"
     transform="matrix(0.35277777,0,0,-0.35277777,64.937215,59.364142)">
    <path
       inkscape:connector-curvature="0"
       d="m 0,0 c 0.849,12.077 2.16,23.992 1.667,35.724 -0.264,5.86 -1.101,11.68 -2.903,17.293 -1.78,5.613 -4.56,10.972 -8.106,15.857 C -5.113,64.576 -1.463,59.585 1.265,54.035 4.015,48.494 5.833,42.465 7.026,36.392 9.381,24.188 9.843,11.955 10.8,-0.011 Z"
       style="fill:#065f92;fill-opacity:1;fill-rule:nonzero;stroke:none;stroke-opacity:1"
       id="path7896" />
  </g>
  <g
     style="fill:#065f92;fill-opacity:1;stroke:none;stroke-opacity:1"
     id="g7898"
     transform="matrix(0.35277777,0,0,-0.35277777,69.599985,59.362092)">
    <path
       inkscape:connector-curvature="0"
       d="m 0,0 c 0.892,15.982 0.589,32.021 -3.006,47.555 -1.808,7.736 -4.471,15.312 -8.342,22.321 -3.858,7.001 -8.984,13.393 -15.277,18.586 C -19.801,84 -13.842,78.094 -9.062,71.313 -4.266,64.53 -0.606,56.941 2.173,49.077 7.728,33.302 9.898,16.522 10.8,0.021 Z"
       style="fill:#065f92;fill-opacity:1;fill-rule:nonzero;stroke:none;stroke-opacity:1"
       id="path7900" />
  </g>
  <g
     style="fill:#065f92;fill-opacity:1;stroke:none;stroke-opacity:1"
     id="g7902"
     transform="matrix(0.35277777,0,0,-0.35277777,73.545134,59.361032)">
    <path
       inkscape:connector-curvature="0"
       d="m 0,0 c 0.868,24.843 0.972,49.685 -2.824,74.136 -1.904,12.203 -4.833,24.271 -9.105,35.919 -4.255,11.648 -9.874,22.848 -16.73,33.305 7.589,-9.934 14.065,-20.788 19.23,-32.284 C -4.248,99.583 -0.365,87.484 2.478,75.164 8.158,50.469 9.869,25.089 10.8,0.016 Z"
       style="fill:#065f92;fill-opacity:1;fill-rule:nonzero;stroke:none;stroke-opacity:1"
       id="path7904" />
  </g>
  <g
     style="fill:#065f92;fill-opacity:1;stroke:none;stroke-opacity:1"
     id="g7906"
     transform="matrix(0.35277777,0,0,-0.35277777,90.402337,59.371372)">
    <path
       inkscape:connector-curvature="0"
       d="m 0,0 c 0.446,14.37 -0.787,28.709 -3.72,42.837 -2.925,14.113 -7.517,27.935 -13.503,41.185 -11.983,26.546 -29.406,50.654 -49.561,72.076 21.419,-20.155 40.478,-43.293 54.411,-69.701 C -5.417,73.214 0.209,59.241 4.156,44.729 8.112,30.235 10.347,15.139 10.8,0.073 Z"
       style="fill:#065f92;fill-opacity:1;fill-rule:nonzero;stroke:none;stroke-opacity:1"
       id="path7908" />
  </g>
  <g
     style="fill:#065f92;fill-opacity:1;stroke:none;stroke-opacity:1"
     id="g7910"
     transform="matrix(0.35277777,0,0,-0.35277777,87.357017,59.251492)">
    <path
       inkscape:connector-curvature="0"
       d="m 0,0 c 1.065,9.571 1.205,19.188 0.713,28.905 -0.499,9.699 -1.638,19.419 -3.252,29.087 -1.617,9.668 -3.702,19.288 -6.19,28.822 -2.506,9.529 -5.337,18.998 -8.755,28.276 4.25,-8.936 7.947,-18.145 11.333,-27.475 3.37,-9.34 6.358,-18.837 8.893,-28.489 2.529,-9.653 4.602,-19.463 6.031,-29.433 1.426,-9.947 2.21,-20.144 2.011,-30.299 z"
       style="fill:#065f92;fill-opacity:1;fill-rule:nonzero;stroke:none;stroke-opacity:1"
       id="path7912" />
  </g>
  <g
     style="fill:#065f92;fill-opacity:1;stroke:none;stroke-opacity:1"
     id="g7914"
     transform="matrix(0.35277777,0,0,-0.35277777,92.554807,59.360362)">
    <path
       inkscape:connector-curvature="0"
       d="m 0,0 c 0.884,28.466 0.828,56.954 -3.342,85.03 -2.118,14.003 -5.284,27.9 -10.45,41.112 -5.15,13.159 -12.479,25.733 -23.001,35.516 11.122,-9.096 19.404,-21.386 25.482,-34.451 C -5.205,114.09 -1.083,100.121 1.97,86.004 8.016,57.701 9.885,28.719 10.8,0.011 Z"
       style="fill:#065f92;fill-opacity:1;fill-rule:nonzero;stroke:none;stroke-opacity:1"
       id="path7916" />
  </g>
  <g
     style="fill:#065f92;fill-opacity:1;stroke:none;stroke-opacity:1"
     id="g7922"
     transform="matrix(0.35277777,0,0,-0.35277777,110.58627,59.343822)">
    <path
       inkscape:connector-curvature="0"
       d="m 0,0 c 0.455,12.741 2.589,25.606 6.751,37.71 4.124,12.125 10.295,23.504 18.129,33.459 7.822,9.977 17.263,18.502 27.572,25.539 10.311,7.06 21.49,12.642 33.012,17.12 C 74.297,108.523 63.635,102.177 54.055,94.535 44.471,86.918 35.98,78.007 29.244,67.986 22.489,57.981 17.513,46.903 14.502,35.359 11.459,23.797 10.357,11.883 10.8,-0.083 Z"
       style="fill:#065f92;fill-opacity:1;fill-rule:nonzero;stroke:none;stroke-opacity:1"
       id="path7924" />
  </g>
  <g
     style="fill:#065f92;fill-opacity:1;stroke:none;stroke-opacity:1"
     id="g7926"
     transform="matrix(0.35277777,0,0,-0.35277777,116.94333,59.351052)">
    <path
       inkscape:connector-curvature="0"
       d="m 0,0 c 0.484,15.195 2.12,30.297 4.749,45.198 2.66,14.893 6.355,29.626 11.572,43.842 5.244,14.173 12.013,27.931 21.288,39.916 9.201,11.953 21.31,21.934 35.401,27.084 C 59.254,150.037 48.046,139.527 39.79,127.363 31.469,115.156 25.708,101.408 21.442,87.326 17.205,73.205 14.475,58.654 12.762,44.019 11.08,29.373 10.381,14.626 10.8,-0.042 Z"
       style="fill:#065f92;fill-opacity:1;fill-rule:nonzero;stroke:none;stroke-opacity:1"
       id="path7928" />
  </g>
  <g
     style="fill:#065f92;fill-opacity:1;stroke:none;stroke-opacity:1"
     id="g7930"
     transform="matrix(0.35277777,0,0,-0.35277777,126.15552,59.320742)">
    <path
       inkscape:connector-curvature="0"
       d="m 0,0 c 0.222,5.846 1.458,11.962 3.518,17.484 2.057,5.579 4.923,10.771 8.36,15.467 6.893,9.394 16.006,16.826 26.15,21.917 10.14,5.085 21.426,7.816 32.621,7.532 11.195,-0.235 22.159,-3.671 31.335,-9.639 -9.645,5.194 -20.603,7.594 -31.293,6.941 C 59.992,59.089 49.624,55.615 40.635,50.14 31.644,44.665 23.952,37.167 18.594,28.422 13.223,19.652 10.324,9.774 10.797,-0.213 Z"
       style="fill:#065f92;fill-opacity:1;fill-rule:nonzero;stroke:none;stroke-opacity:1"
       id="path7932" />
  </g>
  <g
     style="fill:#065f92;fill-opacity:1;stroke:none;stroke-opacity:1"
     id="g7938"
     transform="matrix(0.35277777,0,0,-0.35277777,97.037597,59.356902)">
    <path
       inkscape:connector-curvature="0"
       d="m 0,0 c 0.442,13.353 1.068,26.891 2.914,40.339 1.836,13.435 4.917,26.814 9.948,39.464 4.998,12.649 12.005,24.481 20.743,34.749 8.711,10.302 19.076,19.01 30.254,26.255 C 53.191,132.823 43.54,123.504 35.722,112.875 27.872,102.274 21.913,90.419 17.943,77.977 13.945,65.528 11.865,52.557 10.972,39.505 10.07,26.433 10.341,13.279 10.8,-0.009 Z"
       style="fill:#065f92;fill-opacity:1;fill-rule:nonzero;stroke:none;stroke-opacity:1"
       id="path7940" />
  </g>
</svg>
